<?xml version="1.0" encoding="UTF-8"?>
<svg id="Capa_1" xmlns="http://www.w3.org/2000/svg" version="1.1" viewBox="0 0 256 256">
  <!-- Generator: Adobe Illustrator 29.0.0, SVG Export Plug-In . SVG Version: 2.1.0 Build 186)  -->
  <defs>
    <style>
      .st0 {
        fill: #fff;
      }

      .st1 {
        fill: #e20a19;
      }
    </style>
  </defs>
  <path class="st1" d="M37.9,0h180.3C239,0,256,17.7,256,39.5v177c0,21.8-17,39.5-37.9,39.5H37.9C17,256,0,238.3,0,216.5V39.5C0,17.7,17,0,37.9,0Z"/>
  <g>
    <path class="st0" d="M144,122.7c4.3-4.3,4.3-12.8,0-17.1-4.3-4.3-12.3-4.3-17.1,0-4.3,4.3-4.3,12.3,0,17.1,4.3,4.3,12.8,4.3,17.1,0h0Z"/>
    <path class="st0" d="M147.2,125.3c-2.1,2.1-4.8,3.7-8,4.3-1.6,3.2-2.7,5.3-4.3,7.5-4.3,7.5-9.1,13.9-13.9,19.2-10.1,10.1-20.8,14.9-31.5,15.5-10.7,0-20.8-4.3-30.4-13.3-9.1-9.6-13.3-19.7-13.3-30.4s5.3-21.9,15.5-31.5,11.2-9.6,19.2-13.9c6.4-3.7,17.1-8,30.9-13.3-5.3-4.3-9.6-6.9-13.3-10.1l-5.9-5.3-5.3-5.3c-4.3,2.1-9.1,4.3-13.3,5.9-11.2,5.3-21.9,13.3-30.9,22.4-16,16-25.1,33.6-26.7,52.3-1.6,18.7,4.8,36.3,19.7,51.7h0c15.5,14.4,32.5,21.3,51.7,19.7,18.7-1.6,36.3-10.7,52.3-26.7,16-16,17.1-19.7,22.9-30.9,2.1-4.3,4.3-8.5,5.9-13.3l-5.3-5.3-5.3-5.9c-2.1-2.7-4.3-5.3-7.5-9.1v4.3c0,4.3-1.6,8.5-4.3,11.7h1.1Z"/>
    <path class="st0" d="M219.2,73.1h0c-15.5-14.4-32.5-21.3-51.2-19.7-18.7,1.6-36.3,10.7-52.3,26.7-9.6,9.6-17.1,20.3-22.9,30.9-2.1,4.3-4.3,8.5-5.9,13.3l5.3,5.3,5.3,5.9c3.2,3.2,5.9,7.5,10.1,13.3,4.8-13.9,9.6-24,13.3-30.9-1.6-5.3,0-11.7,4.3-15.5,3.2-3.2,6.9-4.3,11.7-4.3,9.6-9.1,19.7-13.9,30.4-13.9s20.8,4.3,30.4,13.3c9.1,9.6,13.3,19.7,13.3,30.4s-5.3,21.9-15.5,31.5-11.7,9.6-18.7,13.9c-6.4,4.3-17.1,8-30.9,13.3,4.8,4.3,9.6,6.9,13.3,10.1l5.9,5.3,5.3,5.3c4.3-2.1,8.5-4.3,13.3-5.9,11.7-5.9,21.9-13.3,30.9-22.9,16-16,25.1-33.6,26.7-52.3,1.6-19.2-4.8-36.3-19.7-51.2h0l-1.1-1.6-1.6-.5Z"/>
  </g>
</svg>